<svg width="48" height="48" viewBox="0 0 48 48" fill="none" xmlns="http://www.w3.org/2000/svg">
  <circle cx="24" cy="24" r="24" fill="#25D366"/>
  <path d="M34.6 28.2c-.5-.2-2.9-1.4-3.3-1.6-.4-.2-.7-.2-1 .2-.3.4-1.1 1.3-1.4 1.6-.3.3-.5.3-.9.1-.5-.2-2-0.7-3.8-2.2-1.4-1.2-2.3-2.7-2.6-3.2-.3-.5 0-.7.2-.9.2-.2.4-.5.6-.7.2-.2.2-.4.3-.7.1-.3 0-.5 0-.7 0-.2-.9-2.2-1.2-3-.3-.7-.6-.6-.9-.6h-.7c-.2 0-.5.1-.7.3-.2.2-1.3 1.2-1.3 2.9 0 1.7 1.3 3.3 1.5 3.5.2.2 2.6 4.1 6.3 5.6.9.4 1.6.7 2.1.9.9.3 1.7.3 2.3.2.7-.1 2.2-.9 2.5-1.7.3-.8.3-1.5.2-1.7-.1-.2-.4-.3-.9-.5z" fill="#fff"/>
  <path d="M24 12c-6.6 0-12 5.4-12 12 0 2.1.6 4.1 1.6 5.8L12 36l6.3-1.6c1.7.9 3.7 1.4 5.7 1.4 6.6 0 12-5.4 12-12s-5.4-12-12-12zm0 21.5c-1.8 0-3.6-.5-5.1-1.3l-.4-.2-3.7 1 1-3.6-.2-.4c-.8-1.5-1.3-3.2-1.3-5 0-5.5 4.5-10 10-10s10 4.5 10 10-4.5 10-10 10z" fill="#fff"/>
</svg>
